Patient4_TMGait_0pt2_03_right_14_GRF.mot
version=1
nRows=32
nColumns=19
inDegrees=no
endheader
time	F1x	F1y	F1z	M1x	M1y	M1z	F2x	F2y	F2z	M2x	M2y	M2z	EC1x	EC1y	EC1z	EC2x	EC2y	EC2z
29.93	-3.7902	731.7141	47.1861	-274.4393	-53.0802	792.2974	6.8265	8.4365	-3.25	2.8266	1.5953	8.6806	-0.0592	0.0182	-0.0073	-0.0462	0.0165	0.9585
29.9528	-3.903	750.2047	48.6407	-281.3477	-54.6071	813.8156	4.5108	6.4572	-2.2442	2.1667	1.152	6.7193	-0.0592	0.0182	-0.0073	-0.0462	0.0165	0.9585
29.9756	-4.7423	774.5135	50.1208	-290.4854	-56.3398	841.4009	2.5329	4.7802	-1.3759	1.6054	0.76724	5.0455	-0.0592	0.0182	-0.0073	-0.0462	0.0165	0.9585
29.9984	-6.2531	803.9807	51.4491	-301.6197	-58.0543	874.1354	1.0174	3.5181	-0.70374	1.181	0.46947	3.775	-0.0592	0.0182	-0.0073	-0.0462	0.0165	0.9585
30.0211	-8.1436	836.592	52.5136	-313.9882	-59.5229	909.6576	-0.034337	2.6683	-0.23237	0.89464	0.26254	2.91	-0.0592	0.0182	-0.0073	-0.0462	0.0165	0.9585
30.0439	-9.9741	868.6233	53.301	-326.1634	-60.5823	943.8128	-0.68908	2.155	0.063384	0.72269	0.13527	2.3797	-0.0592	0.0182	-0.0073	-0.0462	0.0165	0.9585
30.0667	-11.2976	895.1103	53.867	-336.238	-61.1501	971.1903	-1.0423	1.8629	0.22338	0.62614	0.069759	2.0645	-0.0592	0.0182	-0.0073	-0.0462	0.0165	0.9585
30.0895	-11.7698	911.1317	54.2617	-342.3241	-61.1795	986.5202	-1.1892	1.6611	0.28911	0.55986	0.046995	1.8239	-0.0592	0.0182	-0.0073	-0.0462	0.0165	0.9585
30.1123	-11.1969	913.2942	54.4618	-343.1284	-60.596	986.2608	-1.209	1.4163	0.29883	0.47856	0.046103	1.5147	-0.0592	0.0182	-0.0073	-0.0462	0.0165	0.9585
30.1351	-9.5305	900.7312	54.3929	-338.3305	-59.3193	969.6348	-1.1572	1.0004	0.28676	0.33813	0.042709	1.0002	-0.0592	0.0182	-0.0073	-0.0462	0.0165	0.9585
30.1579	-6.8329	875.3312	53.9984	-328.6608	-57.3294	938.8388	-1.0715	0.29857	0.28077	0.098097	0.014978	0.15379	-0.0592	0.0182	-0.0073	-0.0462	0.0165	0.9585
30.1806	-3.2593	841.2553	53.2897	-315.7075	-54.7121	898.4932	-0.97363	-0.77163	0.30208	-0.27126	-0.052676	-1.121	-0.0592	0.0182	-0.0073	-0.0462	0.0165	0.9585
30.2034	0.95678	803.941	52.3564	-301.5366	-51.6591	854.5495	-0.86938	-2.2351	0.35967	-0.77943	-0.16746	-2.8527	-0.0592	0.0182	-0.0073	-0.0462	0.0165	0.9585
30.2262	5.5421	768.9238	51.3352	-288.2478	-48.4171	813.0144	-0.75168	-4.0254	0.44871	-1.4038	-0.32495	-4.9549	-0.0592	0.0182	-0.0073	-0.0462	0.0165	0.9585
30.249	10.2358	740.7309	50.3679	-277.5606	-45.2222	778.7656	-0.60528	-5.9323	0.55353	-2.0725	-0.51072	-7.1686	-0.0592	0.0182	-0.0073	-0.0462	0.0165	0.9585
30.2718	14.8131	722.0522	49.5692	-270.4983	-42.2623	754.6877	-0.4149	-7.5354	0.64295	-2.6397	-0.69032	-8.9847	-0.0592	0.0182	-0.0073	-0.0462	0.0165	0.9585
30.2946	19.0912	713.3461	49.0042	-267.2347	-39.659	741.2884	-0.17227	-8.1294	0.66704	-2.8611	-0.80169	-9.5582	-0.0592	0.0182	-0.0073	-0.0462	0.0165	0.9585
30.3174	22.9241	712.9069	48.698	-267.1175	-37.4859	736.8023	0.11653	-6.6736	0.55741	-2.3755	-0.75335	-7.6504	-0.0592	0.0182	-0.0073	-0.0462	0.0165	0.9585
30.3401	26.1981	717.3716	48.6429	-268.8589	-35.7812	737.7467	0.4229	-1.7762	0.22647	-0.70011	-0.42437	-1.6232	-0.0592	0.0182	-0.0073	-0.0462	0.0165	0.9585
30.3629	28.824	722.5552	48.7801	-270.8581	-34.5311	739.8057	0.6867	8.2466	-0.43216	2.7509	0.33946	10.4879	-0.0592	0.0182	-0.0073	-0.0462	0.0165	0.9585
30.3857	30.7244	724.2979	48.9893	-271.5271	-33.6614	738.7212	0.80826	25.1806	-1.5305	8.6006	1.711	30.7445	-0.0592	0.0182	-0.0073	-0.0462	0.0165	0.9585
30.4085	31.8157	719.0872	49.0945	-269.528	-33.0466	730.9435	0.63804	50.5267	-3.1614	17.3775	3.8546	60.8395	-0.0592	0.0182	-0.0073	-0.0462	0.0165	0.9585
30.4313	32.0189	704.4169	48.8789	-263.912	-32.5234	713.9929	-0.028122	84.887	-5.3624	29.3019	6.8814	101.3628	-0.0592	0.0182	-0.0073	-0.0462	0.0165	0.9585
30.4541	31.3035	678.9956	48.1119	-254.1984	-31.8985	686.6404	-1.3983	127.3713	-8.1717	44.0673	10.9016	151.1313	-0.0592	0.0182	-0.0073	-0.0462	0.0165	0.9585
30.4769	29.7418	642.9749	46.6167	-240.4576	-30.989	649.1062	-3.5512	175.1978	-11.5868	60.6958	15.9153	206.7731	-0.0592	0.0182	-0.0073	-0.0462	0.0165	0.9585
30.4996	27.5606	598.2076	44.369	-223.399	-29.6958	603.2731	-6.2361	224.2537	-15.4269	77.7493	21.5884	263.4084	-0.0592	0.0182	-0.0073	-0.0462	0.0165	0.9585
30.5224	25.1296	548.1708	41.532	-204.3357	-28.0391	552.5873	-9.0785	271.6612	-19.3518	94.2303	27.3737	317.6668	-0.0592	0.0182	-0.0073	-0.0462	0.0165	0.9585
30.5452	22.7914	496.972	38.3786	-184.8135	-26.1429	501.0876	-11.8095	316.4843	-22.972	109.8273	32.7301	368.5145	-0.0592	0.0182	-0.0073	-0.0462	0.0165	0.9585
30.568	20.734	448.1345	35.1627	-166.1628	-24.1553	452.2131	-14.2702	358.3628	-25.9788	124.4247	37.2571	415.6344	-0.0592	0.0182	-0.0073	-0.0462	0.0165	0.9585
30.5908	19.0298	403.9231	32.059	-149.2516	-22.1807	408.1292	-16.3277	396.8229	-28.234	137.8491	40.7557	458.5725	-0.0592	0.0182	-0.0073	-0.0462	0.0165	0.9585
30.6136	17.709	365.2797	29.1526	-134.46	-20.2551	369.6795	-17.8598	431.2255	-29.78	149.8532	43.2312	496.668	-0.0592	0.0182	-0.0073	-0.0462	0.0165	0.9585
30.6364	16.7755	332.1387	26.4816	-121.7855	-18.3849	336.721	-18.7998	461.0621	-30.7407	160.231	44.7996	529.3886	-0.0592	0.0182	-0.0073	-0.0462	0.0165	0.9585
